<?xml version="1.0" encoding="utf-8"?>
<!-- Generator: Adobe Illustrator 15.1.0, SVG Export Plug-In . SVG Version: 6.00 Build 0)  -->
<!DOCTYPE svg PUBLIC "-//W3C//DTD SVG 1.1//EN" "http://www.w3.org/Graphics/SVG/1.1/DTD/svg11.dtd">
<svg version="1.1" xmlns="http://www.w3.org/2000/svg" xmlns:xlink="http://www.w3.org/1999/xlink" x="0px" y="0px" width="1024px"
	 height="1024px" viewBox="0 0 1024 1024" enable-background="new 0 0 1024 1024" xml:space="preserve">
<filter  id="dropShadowAlpha">
	<feColorMatrix  type="saturate" values="0.1" in="SourceAlpha" result="matrixOut"></feColorMatrix>
	<feGaussianBlur  in="matrixOut" result="blur-out" stdDeviation="6"></feGaussianBlur>
	
		<feColorMatrix  type="matrix" values="0 0 0 0   0                 0 0 0 0   0                  0 0 0 0   0                  0 0 0 0.35 0" in="blur-out" result="color-out">
		</feColorMatrix>
	<feBlend  in2="color-out" mode="normal" in="SourceGraphic"></feBlend>
</filter>
<g id="svg2" sodipodi:docname="bitcoin-logo-noshadow.svg" inkscape:version="0.48.2 r9819" xmlns:dc="http://purl.org/dc/elements/1.1/" xmlns:cc="http://creativecommons.org/ns#" xmlns:rdf="http://www.w3.org/1999/02/22-rdf-syntax-ns#" xmlns:svg="http://www.w3.org/2000/svg" xmlns:sodipodi="http://sodipodi.sourceforge.net/DTD/sodipodi-0.dtd" xmlns:inkscape="http://www.inkscape.org/namespaces/inkscape">
	<g>
		<circle fill="#FFFFFF" cx="476.234" cy="476.234" r="353.104"/>
		<g filter="url(#dropShadowAlpha)">
			
				<radialGradient id="SVGID_1_" cx="483.9531" cy="473.0215" r="34.432" gradientTransform="matrix(1.7655 0 0 -1.7655 -338.5756 1207.9761)" gradientUnits="userSpaceOnUse">
				<stop  offset="0" style="stop-color:#F9AA4B"/>
				<stop  offset="1" style="stop-color:#F7931A"/>
			</radialGradient>
			<path fill="url(#SVGID_1_)" d="M475.611,334.287l-24.688,99.01c27.992,6.976,114.291,35.436,128.275-20.579
				C593.762,354.287,503.605,341.265,475.611,334.287z"/>
		</g>
		<g filter="url(#dropShadowAlpha)">
			
				<radialGradient id="SVGID_2_" cx="468.377" cy="384.896" r="39.8733" gradientTransform="matrix(1.7655 0 0 -1.7655 -338.5756 1207.9761)" gradientUnits="userSpaceOnUse">
				<stop  offset="0" style="stop-color:#F9AA4B"/>
				<stop  offset="1" style="stop-color:#F7931A"/>
			</radialGradient>
			<path fill="url(#SVGID_2_)" d="M438.467,483.269l-27.233,109.165c33.615,8.35,137.303,41.639,152.625-19.943
				C579.876,508.268,472.08,491.658,438.467,483.269z"/>
		</g>
		
			<radialGradient id="SVGID_3_" cx="462.4902" cy="413.4653" r="255.9875" gradientTransform="matrix(1.7655 0 0 -1.7655 -338.5756 1207.9761)" gradientUnits="userSpaceOnUse">
			<stop  offset="0" style="stop-color:#F9AA4B"/>
			<stop  offset="1" style="stop-color:#F7931A"/>
		</radialGradient>
		<path fill="url(#SVGID_3_)" d="M587.234,39.544C345.146-20.822,99.909,126.549,39.571,368.707
			c-60.395,242.116,86.962,487.368,329.022,547.734c242.158,60.379,487.394-86.979,547.763-329.106
			C976.722,345.19,829.379,99.911,587.234,39.544z M677.163,413.608c-6.512,44.024-30.918,65.338-63.319,72.81
			c44.491,23.164,67.133,58.684,45.566,120.267c-26.765,76.48-90.352,82.938-174.913,66.935l-20.522,82.245l-49.59-12.358
			l20.254-81.144c-12.851-3.193-25.988-6.584-39.519-10.256l-20.325,81.526l-49.533-12.358l20.522-82.402
			c-11.584-2.966-23.349-6.115-35.353-9.124l-64.533-16.086l24.617-56.765c0,0,36.539,9.718,36.045,8.997
			c14.039,3.477,20.268-5.678,22.726-11.779l32.429-130.013l0.084-0.354l23.135-92.81c0.607-10.536-3.022-23.827-23.107-28.841
			c0.775-0.523-36.017-8.955-36.017-8.955l13.192-52.965l68.389,17.078l-0.057,0.254c10.282,2.557,20.876,4.986,31.668,7.443
			l20.323-81.441l49.562,12.358l-19.915,79.844c13.305,3.039,26.694,6.102,39.731,9.352l19.773-79.323l49.59,12.358l-20.311,81.47
			C640.369,321.138,686.161,353.468,677.163,413.608z"/>
	</g>
</g>
<g id="Layer_1">
	
		<image overflow="visible" width="928" height="931" xlink:href="../../CoinArt/Cuts/NoShadowsLarge.png"  transform="matrix(1 0 0 1 21.5176 7)">
	</image>
</g>
</svg>
